<svg width="40" height="40" viewBox="0 0 40 40" fill="none" xmlns="http://www.w3.org/2000/svg">
<circle cx="20" cy="20" r="20" fill="#D6FDD2"/>
<path d="M19.8272 17.899C22.6512 17.899 24.9405 15.6531 24.9405 12.8828C24.9405 10.1124 22.6512 7.86658 19.8272 7.86658C17.0032 7.86658 14.7139 10.1124 14.7139 12.8828C14.7139 15.6531 17.0032 17.899 19.8272 17.899Z" stroke="#2B2B2B" stroke-width="1.5"/>
<path d="M30.0504 27.57C30.0521 27.3644 30.0529 27.1554 30.0529 26.943C30.0529 23.8267 25.474 21.2998 19.8263 21.2998C14.1786 21.2998 9.59961 23.8267 9.59961 26.943C9.59961 30.0593 9.59961 32.5862 19.8263 32.5862C22.6782 32.5862 24.7351 32.3894 26.2179 32.0382" stroke="#2B2B2B" stroke-width="1.5" stroke-linecap="round"/>
</svg>
