<svg width="40" height="40" viewBox="0 0 40 40" fill="none" xmlns="http://www.w3.org/2000/svg">
<circle cx="20" cy="20" r="20" fill="#D6FDD2"/>
<path d="M9.19414 16.389L10.2171 12.6262C10.6119 11.1745 10.8092 10.4494 11.2141 9.90191C11.6178 9.35803 12.166 8.93904 12.7961 8.6929C13.43 8.44446 14.1792 8.44446 15.6776 8.44446M30.8057 16.389L29.7827 12.6262C29.3879 11.1745 29.1906 10.4494 28.7857 9.90191C28.382 9.35803 27.8338 8.93904 27.2037 8.6929C26.5698 8.44446 25.8206 8.44446 24.3222 8.44446" stroke="#2B2B2B" stroke-width="1.5"/>
<path d="M24.3223 8.44446C24.3223 8.06136 24.1705 7.69396 23.9003 7.42307C23.6301 7.15218 23.2636 7 22.8815 7H17.1184C16.7363 7 16.3698 7.15218 16.0996 7.42307C15.8295 7.69396 15.6777 8.06136 15.6777 8.44446C15.6777 8.82755 15.8295 9.19495 16.0996 9.46584C16.3698 9.73673 16.7363 9.88891 17.1184 9.88891H22.8815C23.2636 9.88891 23.6301 9.73673 23.9003 9.46584C24.1705 9.19495 24.3223 8.82755 24.3223 8.44446Z" stroke="#2B2B2B" stroke-width="1.5"/>
<path d="M25.7627 21.4442V27.222M14.2366 21.4442V27.222M19.9996 21.4442V27.222" stroke="#2B2B2B" stroke-width="1.5" stroke-linecap="round" stroke-linejoin="round"/>
<path d="M31.7221 26.4349C30.9354 29.5882 30.5421 31.1641 29.3708 32.0828C28.198 33 26.5771 33 23.3354 33H16.6646C13.4229 33 11.802 33 10.6278 32.0828C9.45646 31.1641 9.06313 29.5882 8.27791 26.4349C7.04173 21.4776 6.42364 19.0003 7.72033 17.3334C9.01846 15.6665 11.5672 15.6665 16.6632 15.6665H23.3354C28.4328 15.6665 30.9801 15.6665 32.2782 17.3334C33.0404 18.3113 33.1427 19.5694 32.8459 21.4443" stroke="#2B2B2B" stroke-width="1.5" stroke-linecap="round"/>
</svg>
