<svg width="33" height="40" viewBox="0 0 33 40" fill="none" xmlns="http://www.w3.org/2000/svg">
<path d="M32.332 16.0114C32.332 7.17045 24.9876 0 16.332 0C7.67648 0 0.332031 7.17045 0.332031 16.0227C0.332031 19.5455 1.7987 22.7273 3.68759 25.4545H3.65425C4.86536 27.1591 6.03203 28.6023 7.15425 30.5682C9.5987 34.8636 9.22092 39.0114 9.23203 39.8409V40H23.4543V39.8409C23.4543 38.8295 23.0543 34.8636 25.4987 30.5682C26.6209 28.6023 27.7876 27.1591 28.9987 25.4545H28.9876C30.8654 22.7273 32.332 19.5455 32.332 16.0114ZM26.8876 25.2727C26.8209 25.3636 26.7654 25.4432 26.6987 25.5341C25.7987 26.7727 24.8654 28.0568 23.9543 29.6364C22.032 33.0114 21.6876 36.2159 21.6431 38.1705H19.8876V25.4545L23.4431 18.1818H21.5987L18.1098 25.4545V38.1818H14.5543V25.4545L11.0654 18.1818H9.22092L12.7765 25.4545V38.1818H11.0098C10.9543 36.2273 10.5765 32.9886 8.68759 29.6591C8.18759 28.7841 7.67648 27.9545 7.16536 27.2727H7.18759L5.12092 24.3636C3.36537 21.9091 2.10981 19.0114 2.10981 16C2.10981 12.2045 3.88759 8.63636 6.50981 5.95455C9.13203 3.27273 12.6209 1.78409 16.332 1.78409C20.0431 1.78409 23.532 3.27273 26.1543 5.95455C28.7765 8.63636 30.5543 12.2045 30.5543 16C30.5543 19.0114 29.2987 21.8977 27.5431 24.3523L26.8876 25.2727Z" fill="black"/>
</svg>
