<svg width="34" height="38" viewBox="0 0 34 38" fill="none" xmlns="http://www.w3.org/2000/svg">
<path d="M4.16667 37.5C3.15833 37.5 2.29544 37.138 1.578 36.414C0.860556 35.6901 0.501222 34.8187 0.5 33.8V7.9C0.5 6.8825 0.859333 6.01177 1.578 5.2878C2.29667 4.56384 3.15956 4.20124 4.16667 4.20001H6V2.35001C6 1.82584 6.176 1.38677 6.528 1.03281C6.88 0.67884 7.31511 0.50124 7.83333 0.500006C8.35155 0.498773 8.78728 0.676373 9.1405 1.03281C9.49372 1.38924 9.66911 1.82831 9.66667 2.35001V4.20001H24.3333V2.35001C24.3333 1.82584 24.5093 1.38677 24.8613 1.03281C25.2133 0.67884 25.6484 0.50124 26.1667 0.500006C26.6849 0.498773 27.1206 0.676373 27.4738 1.03281C27.8271 1.38924 28.0024 1.82831 28 2.35001V4.20001H29.8333C30.8417 4.20001 31.7052 4.5626 32.4238 5.2878C33.1425 6.013 33.5012 6.88374 33.5 7.9V33.8C33.5 34.8175 33.1413 35.6888 32.4238 36.414C31.7064 37.1392 30.8429 37.5012 29.8333 37.5H4.16667ZM4.16667 33.8H29.8333V15.3H4.16667V33.8ZM4.16667 11.6H29.8333V7.9H4.16667V11.6ZM17 22.7C16.4806 22.7 16.0454 22.5224 15.6947 22.1672C15.3439 21.812 15.1679 21.3729 15.1667 20.85C15.1654 20.3271 15.3414 19.888 15.6947 19.5328C16.0479 19.1776 16.483 19 17 19C17.517 19 17.9527 19.1776 18.3072 19.5328C18.6616 19.888 18.837 20.3271 18.8333 20.85C18.8297 21.3729 18.6537 21.8126 18.3053 22.1691C17.957 22.5255 17.5219 22.7025 17 22.7ZM9.66667 22.7C9.14722 22.7 8.71211 22.5224 8.36133 22.1672C8.01056 21.812 7.83456 21.3729 7.83333 20.85C7.83211 20.3271 8.00811 19.888 8.36133 19.5328C8.71455 19.1776 9.14967 19 9.66667 19C10.1837 19 10.6194 19.1776 10.9738 19.5328C11.3283 19.888 11.5037 20.3271 11.5 20.85C11.4963 21.3729 11.3203 21.8126 10.972 22.1691C10.6237 22.5255 10.1886 22.7025 9.66667 22.7ZM24.3333 22.7C23.8139 22.7 23.3788 22.5224 23.028 22.1672C22.6772 21.812 22.5012 21.3729 22.5 20.85C22.4988 20.3271 22.6748 19.888 23.028 19.5328C23.3812 19.1776 23.8163 19 24.3333 19C24.8503 19 25.2861 19.1776 25.6405 19.5328C25.9949 19.888 26.1703 20.3271 26.1667 20.85C26.163 21.3729 25.987 21.8126 25.6387 22.1691C25.2903 22.5255 24.8552 22.7025 24.3333 22.7ZM17 30.1C16.4806 30.1 16.0454 29.9224 15.6947 29.5672C15.3439 29.212 15.1679 28.7729 15.1667 28.25C15.1654 27.7271 15.3414 27.288 15.6947 26.9328C16.0479 26.5776 16.483 26.4 17 26.4C17.517 26.4 17.9527 26.5776 18.3072 26.9328C18.6616 27.288 18.837 27.7271 18.8333 28.25C18.8297 28.7729 18.6537 29.2126 18.3053 29.569C17.957 29.9255 17.5219 30.1025 17 30.1ZM9.66667 30.1C9.14722 30.1 8.71211 29.9224 8.36133 29.5672C8.01056 29.212 7.83456 28.7729 7.83333 28.25C7.83211 27.7271 8.00811 27.288 8.36133 26.9328C8.71455 26.5776 9.14967 26.4 9.66667 26.4C10.1837 26.4 10.6194 26.5776 10.9738 26.9328C11.3283 27.288 11.5037 27.7271 11.5 28.25C11.4963 28.7729 11.3203 29.2126 10.972 29.569C10.6237 29.9255 10.1886 30.1025 9.66667 30.1ZM24.3333 30.1C23.8139 30.1 23.3788 29.9224 23.028 29.5672C22.6772 29.212 22.5012 28.7729 22.5 28.25C22.4988 27.7271 22.6748 27.288 23.028 26.9328C23.3812 26.5776 23.8163 26.4 24.3333 26.4C24.8503 26.4 25.2861 26.5776 25.6405 26.9328C25.9949 27.288 26.1703 27.7271 26.1667 28.25C26.163 28.7729 25.987 29.2126 25.6387 29.569C25.2903 29.9255 24.8552 30.1025 24.3333 30.1Z" fill="#0E3A0E"/>
</svg>
