<svg width="44" height="40" viewBox="0 0 44 40" fill="none" xmlns="http://www.w3.org/2000/svg">
<path d="M26.7436 9.60504C26.3483 9.9788 26.1269 10.4813 26.1269 11.0047C26.1269 11.528 26.3483 12.0305 26.7436 12.4043L30.1954 15.6035C30.5986 15.9698 31.1408 16.175 31.7055 16.175C32.2702 16.175 32.8124 15.9698 33.2156 15.6035L41.3488 8.06544C42.4335 10.2872 42.762 12.7627 42.2903 15.1619C41.8187 17.5611 40.5693 19.7701 38.7088 21.4945C36.8482 23.2189 34.4648 24.3768 31.8762 24.814C29.2876 25.2511 26.6167 24.9467 24.2195 23.9413L9.31239 37.7577C8.45415 38.5531 7.29012 39 6.07639 39C4.86266 39 3.69863 38.5531 2.84039 37.7577C1.98215 36.9622 1.5 35.8834 1.5 34.7585C1.5 33.6335 1.98215 32.5547 2.84039 31.7593L17.7476 17.9429C16.6628 15.7211 16.3343 13.2456 16.806 10.8464C17.2776 8.44723 18.527 6.23823 20.3875 4.51381C22.2481 2.78939 24.6315 1.63146 27.2201 1.19432C29.8087 0.757178 32.4796 1.0616 34.8768 2.06701L26.7652 9.58504L26.7436 9.60504Z" stroke="black" stroke-width="2" stroke-linecap="round" stroke-linejoin="round"/>
</svg>
